<?xml version="1.0" encoding="utf-8"?>
<!-- Generator: Adobe Illustrator 22.0.0, SVG Export Plug-In . SVG Version: 6.00 Build 0)  -->
<svg version="1.1" id="图层_1" xmlns="http://www.w3.org/2000/svg" xmlns:xlink="http://www.w3.org/1999/xlink" x="0px" y="0px"
	 viewBox="0 0 200 200" style="enable-background:new 0 0 200 200;" xml:space="preserve">
<style type="text/css">
	.st0{fill:#E59A2E;enable-background:new    ;}
	.st1{fill:#792218;enable-background:new    ;}
	.st2{fill:#68120C;}
	.st3{fill:#3F2704;}
	.st4{fill:#FFFFFF;}
</style>
<path class="st0" d="M124.5,100.4c15.8-14,24-29.5,18.3-34.6c-2.8-2.5-8.6-2-15.6,0.9c-4.3,2.7-8.7,6-13.1,9.9
	c-15.8,14-24,29.5-18.3,34.6c2.8,2.5,8.6,2,15.6-0.9C115.8,107.6,120.2,104.3,124.5,100.4L124.5,100.4z"/>
<path class="st1" d="M61.5,89.7c6.9,13.3,23.4,26.2,40.3,23.4l0.1-0.1c-2.8,0.5-5.1,0.1-6.5-1.3c-4.7-4.7,2-19.1,15.1-32.1
	c8.2-8.2,17-13.9,23.5-15.9c-1.2-14.2-12.3-27.2-23.7-33.1c-4.7-2.4-9.2-3.8-13.5-4.3c-14,1.6-25.1,9.1-32.5,7.2
	C67.2,44.8,48.4,64.5,61.5,89.7L61.5,89.7z"/>
<path class="st2" d="M121.8,70.4c3.2-2,5.9-3.8,10-5.2c6.1-2.1,7.8-0.8,9.6-2.7c3.3-3.7,0-12.2-2.4-16.3c-2.8-4.9-6.3-7.5-10.3-10.5
	c-4.6-3.4-8.8-6.6-15-8c-7.9-1.7-16,0.2-18.3,0.4l0,0c4,0.2,13.7,1.3,22.4,8.5c3.8,3.2,6.4,6.6,8,9.3c0.5,1.5,1.4,4.3,1,7.9
	c-0.4,4-2.2,6.9-3.1,8.2c-2.3,2-5.6,4.9-9.3,8.6c-3,2.9-5.9,5.9-9,9.5c-8.8,10-9.6,13.4-8.9,15.9c0.2,0.9,0.6,1.5,0.9,1.9
	c1.4-1.9,2.8-3.8,4.2-5.7c2.1-3.8,5.2-8.5,9.8-13.1C113.5,76.7,116.9,73.5,121.8,70.4z"/>
<path class="st3" d="M91.3,107.4c0-0.4,0-0.7,0-1.1c0.2-2.5,1.1-5.4,2.6-8.7c3-6.3,8.2-13.4,14.7-19.9c6.5-6.5,13.6-11.7,19.9-14.7
	c3.2-1.5,6.2-2.4,8.7-2.6c2.1-0.2,5.1,0.1,7.3,2.2c2.1,2.1,2.4,5.1,2.2,7.3c-0.2,2.5-1.1,5.4-2.6,8.7c-3,6.3-8.2,13.4-14.7,19.9
	s-13.6,11.7-19.9,14.7c-3.2,1.5-6.2,2.4-8.7,2.6c-2.1,0.2-5.1-0.1-7.3-2.2C91.7,111.8,91.3,109.4,91.3,107.4z M141.5,68.8
	c0-1.1-0.2-1.9-0.7-2.4c-1.3-1.3-5.2-0.8-9.9,1.4c-5.8,2.7-12.3,7.6-18.4,13.7c-6.1,6.1-10.9,12.6-13.7,18.4
	c-2.2,4.7-2.8,8.6-1.4,9.9c1.3,1.3,5.2,0.8,9.9-1.4c5.8-2.7,12.3-7.6,18.4-13.7c6.1-6.1,10.9-12.6,13.7-18.4
	C140.7,73.4,141.5,70.7,141.5,68.8z"/>
<path class="st3" d="M54.2,70.9c0-1.3,0.1-2.6,0.2-4c0.6-7.2,2.8-13.5,4.7-19.1c1.9-5.5,3.5-10.3,2.7-13.6c-0.2-0.9,0-1.9,0.7-2.5
	c0.7-0.7,1.6-0.9,2.5-0.7c3.2,0.8,8-0.8,13.6-2.7c5.6-1.9,11.9-4.1,19.1-4.7c8.5-0.7,16.3,0.8,24,4.8c14.3,7.4,27.8,25,24.8,43
	c-0.2,1.4-1.6,2.4-3,2.2s-2.4-1.6-2.2-3c1.5-9-2.1-16.9-5.3-22c-4.1-6.5-10.2-12.1-16.7-15.5c-6.8-3.5-13.7-4.9-21.1-4.3
	c-6.6,0.6-12.6,2.6-17.9,4.4c-4.8,1.6-9.1,3.1-13,3.2c-0.1,3.9-1.6,8.2-3.2,13c-1.8,5.3-3.9,11.3-4.4,17.9
	c-0.6,7.4,0.7,14.4,4.3,21.1c3.4,6.5,9,12.6,15.5,16.7c5.1,3.2,13,6.8,22,5.3c1.4-0.2,2.8,0.7,3,2.2c0.2,1.4-0.7,2.8-2.2,3
	c-18,3-35.6-10.5-43-24.8C55.8,84.5,54.2,77.9,54.2,70.9L54.2,70.9z"/>
<path class="st2" d="M69.2,41.1c0-0.7,0.3-1.4,0.8-1.9c1-1,2.7-1,3.7,0l5.6,5.6c1,1,1,2.7,0,3.7c-1,1-2.7,1-3.7,0L70,42.9
	C69.5,42.4,69.2,41.8,69.2,41.1z"/>
<path class="st2" d="M75.2,37.8c0-0.1,0-0.3,0-0.4c0.2-1.4,1.5-2.5,3-2.2l3.3,0.5c1.4,0.2,2.5,1.5,2.2,3c-0.2,1.4-1.5,2.5-3,2.2
	l-3.3-0.5C76.2,40.3,75.2,39.1,75.2,37.8z"/>
<path class="st2" d="M65.9,47.2c0-1.3,1-2.4,2.3-2.6c1.4-0.2,2.8,0.8,3,2.2l0.5,3.3c0.2,1.4-0.8,2.8-2.2,3c-1.4,0.2-2.8-0.8-3-2.2
	l-0.5-3.3C65.9,47.4,65.9,47.3,65.9,47.2z"/>
<circle class="st4" cx="66.6" cy="61.7" r="1.8"/>
<path class="st4" d="M71.3,81.2"/>
<path class="st4" d="M72.1,91.2c0,0.5-0.1,1-0.5,1.3c-0.5,0.4-1.5,0.2-2-0.6c-1.5-2.6-3.4-6.6-4.4-11.8c-1.1-5.6-0.8-10.4-0.4-13.5
	c0.1-0.6,0.6-1.1,1.2-1.1c0.6,0,1.1,0.4,1.2,1c-0.1,3,0,6.8,0.7,10.9C68.8,83.1,70.5,87.8,72.1,91.2z"/>
<path class="st4" d="M78.9,72.1"/>
</svg>
