<svg id="图层_1" data-name="图层 1" xmlns="http://www.w3.org/2000/svg" width="68.45mm" height="60.08mm" viewBox="0 0 194.03 170.29">
  <defs>
    <style>
      .cls-1 {
        fill: #c5ffea;
      }
    </style>
  </defs>
  <title>毕设logo</title>
  <path class="cls-1" d="M28.85,58.7a260.25,260.25,0,0,1,4.32,33c.36,5.68.42,11.29-1.71,16.67-1.83,4.64-4.63,8.83-6.72,13.36-8.65,18.81-12.06,40.37-17,60.35A1.52,1.52,0,0,0,9.16,184a1419.62,1419.62,0,0,0,157.31,6.63,1.52,1.52,0,0,0,1.45-1.11c9.52-46.15,18.93-92.73,18.2-140.09,0-1.93-3-1.93-3,0,.72,47.1-8.63,93.39-18.09,139.3l1.44-1.1A1419.62,1419.62,0,0,1,9.16,181l1.44,1.9c5.45-21.89,9-45.76,19.87-65.78,2-3.75,4.12-7.52,5.1-11.72,1.12-4.79.87-9.74.54-14.62A271.9,271.9,0,0,0,31.75,57.9c-.37-1.89-3.26-1.09-2.9.8Z" transform="translate(-2.97 -20.47)"/>
  <path class="cls-1" d="M18.42,43.58c27.09.39,53.51-5.72,80-10.7a520.8,520.8,0,0,1,85.41-8.51c1.93,0,1.93-3,0-3a519.42,519.42,0,0,0-82.47,7.92c-27.46,5-54.8,11.7-82.9,11.29-1.93,0-1.93,3,0,3Z" transform="translate(-2.97 -20.47)"/>
  <path class="cls-1" d="M29.33,38.92q-3,30.63-7.4,61.1c-.27,1.89,2.62,2.7,2.89.8q4.41-30.87,7.51-61.9c.19-1.91-2.81-1.9-3,0Z" transform="translate(-2.97 -20.47)"/>
  <path class="cls-1" d="M4.39,128.35c31.87-4.17,63.75-8.32,95.42-13.8,16-2.75,31.83-6,47.66-9.41,15.61-3.39,32.23-6.16,47.25,1,1.73.83,3.26-1.76,1.51-2.59-12.83-6.11-26.89-5.6-40.58-3.12-16.37,3-32.54,6.94-48.92,9.88-33.94,6.1-68.15,10.58-102.34,15-1.88.24-1.91,3.25,0,3Z" transform="translate(-2.97 -20.47)"/>
  <path class="cls-1" d="M76.53,23.4q8,82.19,10.56,164.75c.06,1.92,3.06,1.93,3,0Q87.5,105.62,79.53,23.4c-.18-1.9-3.19-1.92-3,0Z" transform="translate(-2.97 -20.47)"/>
  <path class="cls-1" d="M47.38,21.92c-.08,17.62-4.59,34.62-7.6,51.86-.62,3.57-2.73,8.51,1.95,9.59,7.54,1.74,17,.43,24.65-.25,1.9-.17,1.92-3.18,0-3-6.44.57-14.12,1.72-20.52.52-5.06-.94-3.43-4.8-2.68-8.86.63-3.41,1.31-6.82,2-10.23,2.61-13.1,5.15-26.22,5.21-39.63a1.5,1.5,0,0,0-3,0Z" transform="translate(-2.97 -20.47)"/>
  <path class="cls-1" d="M120.56,39.91c-7.77,4.68-16.17,12.71-17.32,22.21-1,8.15,4.86,15,13.26,13.7,8.92-1.41,19.53-9.61,24.79-16.75,6.07-8.22-6.26-11.5-12.37-12.36-1.88-.27-2.7,2.62-.79,2.89,2.68.38,6.73.83,9,2.54q2.61.53,1.32,3.31a3,3,0,0,1-1.23,3.74A18.68,18.68,0,0,1,134.24,62C129.7,66.15,124,70.67,118,72.42c-10.72,3.13-13.89-7.82-9.86-15.67A36.74,36.74,0,0,1,122.07,42.5a1.5,1.5,0,0,0-1.51-2.59Z" transform="translate(-2.97 -20.47)"/>
  <path class="cls-1" d="M52.86,102.18a22.88,22.88,0,0,0-17.06,15.9,1.5,1.5,0,0,0,1,1.84c8.16,1.12,16-6.81,20.07-13l-2.79-.76c-1.78,15.59-8.38,35.76-22.74,44.25-7.24,4.28-8.24-4.75-8.9-9.84-.58-4.53-.95-9.09-1.14-13.65A162.27,162.27,0,0,1,22.81,98c.26-1.89-2.63-2.71-2.89-.8a165.08,165.08,0,0,0-1.07,37.5c.47,5.21.47,21.21,8.94,20.38,8.19-.81,15.26-10.82,19-17.21a80.41,80.41,0,0,0,10.31-31.74c.18-1.59-2.06-1.88-2.8-.76-3.13,4.76-10.2,12.54-16.68,11.65l1,1.84a19.89,19.89,0,0,1,15-13.8c1.88-.43,1.08-3.32-.8-2.89Z" transform="translate(-2.97 -20.47)"/>
  <path class="cls-1" d="M129.82,96.49A40.43,40.43,0,0,0,108,126.13c-1.45,9.33-.18,28.51,13.62,26.42,5.93-.9,11.21-5.65,15.8-9.21a101.41,101.41,0,0,0,15.06-14.08,61.48,61.48,0,0,0,10.25-16c2-4.79,1.05-7.91-3.19-10.85C146.4,93.33,130,89,114.12,88.77c-1.93,0-1.93,3,0,3a81.39,81.39,0,0,1,39.58,10.6c4.59,2.63,8.64,4.79,5.68,11a58.43,58.43,0,0,1-4.4,7.64,80,80,0,0,1-13.14,14.72,95.81,95.81,0,0,1-15.14,11.54c-4.84,2.82-10.56,3.62-13.7-2-1.91-3.41-2.4-8.23-2.5-12-.37-14.65,8-27.66,20.83-34.26,1.72-.88.21-3.47-1.51-2.59Z" transform="translate(-2.97 -20.47)"/>
</svg>
